<?xml version="1.0" encoding="UTF-8" standalone="no"?>
<svg
   xmlns:dc="http://purl.org/dc/elements/1.1/"
   xmlns:cc="http://creativecommons.org/ns#"
   xmlns:rdf="http://www.w3.org/1999/02/22-rdf-syntax-ns#"
   xmlns:svg="http://www.w3.org/2000/svg"
   xmlns="http://www.w3.org/2000/svg"
   id="svg8"
   version="1.1"
   viewBox="0 0 24.170017 10.318749"
   height="10.318749mm"
   width="24.170017mm">
  <defs
     id="defs2" />
  <metadata
     id="metadata5">
    <rdf:RDF>
      <cc:Work
         rdf:about="">
        <dc:format>image/svg+xml</dc:format>
        <dc:type
           rdf:resource="http://purl.org/dc/dcmitype/StillImage" />
        <dc:title></dc:title>
      </cc:Work>
    </rdf:RDF>
  </metadata>
  <g
     transform="translate(-78.982659,-87.665449)"
     id="layer1">
    <g
       id="text817"
       style="font-style:normal;font-weight:normal;font-size:10.58333302px;line-height:1.25;font-family:sans-serif;letter-spacing:0px;word-spacing:0px;fill:#000000;fill-opacity:1;stroke:none;stroke-width:0.26458332"
       aria-label="bci.js">
      <path
         id="path4519"
         style="font-style:normal;font-variant:normal;font-weight:normal;font-stretch:normal;font-family:'Varela Round';-inkscape-font-specification:'Varela Round';fill:#00aaa6;fill-opacity:1;stroke-width:0.26458332"
         d="m 81.755492,95.550032 q -1.037166,0 -1.809749,-0.804333 v 0.275166 q 0,0.201084 -0.148167,0.338667 -0.137583,0.137583 -0.338667,0.137583 -0.201083,0 -0.338666,-0.137583 -0.137584,-0.137583 -0.137584,-0.338667 v -6.868583 q 0,-0.201083 0.137584,-0.338666 0.137583,-0.148167 0.338666,-0.148167 0.211667,0 0.34925,0.137583 0.137584,0.137584 0.137584,0.34925 v 2.592917 q 0.772583,-0.804334 1.809749,-0.804334 0.656167,0 1.23825,0.338667 0.592667,0.328083 0.9525,0.973667 0.370417,0.635 0.370417,1.49225 0,0.85725 -0.370417,1.502833 -0.359833,0.635 -0.9525,0.973667 -0.582083,0.328083 -1.23825,0.328083 z m -0.137583,-0.899583 q 0.783167,0 1.259417,-0.497417 0.47625,-0.497417 0.47625,-1.407583 0,-0.910167 -0.47625,-1.407584 -0.47625,-0.497416 -1.259417,-0.497416 -0.486833,0 -0.92075,0.22225 -0.423333,0.211666 -0.751416,0.5715 v 2.2225 q 0.328083,0.359833 0.751416,0.582083 0.433917,0.211667 0.92075,0.211667 z" />
      <path
         id="path4521"
         style="font-style:normal;font-variant:normal;font-weight:normal;font-stretch:normal;font-family:'Varela Round';-inkscape-font-specification:'Varela Round';fill:#00aaa6;fill-opacity:1;stroke-width:0.26458332"
         d="m 88.156921,95.550032 q -0.762,0 -1.407584,-0.338667 -0.645583,-0.338666 -1.037166,-0.973666 -0.381,-0.635 -0.381,-1.49225 0,-0.85725 0.381,-1.49225 0.391583,-0.635 1.037166,-0.973667 0.645584,-0.338667 1.407584,-0.338667 0.560916,0 0.963083,0.148167 0.41275,0.137583 0.762,0.359833 0.211667,0.137584 0.211667,0.370417 0,0.15875 -0.127,0.296333 -0.116417,0.127 -0.275167,0.127 -0.116417,0 -0.232833,-0.0635 -0.34925,-0.179916 -0.60325,-0.254 -0.243417,-0.08467 -0.613834,-0.08467 -0.910166,0 -1.42875,0.529166 -0.518583,0.518584 -0.518583,1.375834 0,0.85725 0.518583,1.386416 0.518584,0.518584 1.42875,0.518584 0.370417,0 0.613834,-0.07408 0.254,-0.08467 0.60325,-0.264583 0.116416,-0.0635 0.232833,-0.0635 0.15875,0 0.275167,0.137583 0.127,0.127 0.127,0.28575 0,0.232834 -0.211667,0.370417 -0.34925,0.22225 -0.762,0.370417 -0.402167,0.137583 -0.963083,0.137583 z" />
      <path
         id="path4523"
         style="font-style:normal;font-variant:normal;font-weight:normal;font-stretch:normal;font-family:'Varela Round';-inkscape-font-specification:'Varela Round';fill:#00aaa6;fill-opacity:1;stroke-width:0.26458332"
         d="m 91.757404,88.946032 q -0.22225,0 -0.381,-0.15875 -0.15875,-0.15875 -0.15875,-0.381 v -0.04233 q 0,-0.22225 0.15875,-0.381 0.15875,-0.15875 0.381,-0.15875 h 0.0635 q 0.22225,0 0.381,0.15875 0.15875,0.15875 0.15875,0.381 v 0.04233 q 0,0.22225 -0.15875,0.381 -0.15875,0.15875 -0.381,0.15875 z m 0.02117,6.551083 q -0.201083,0 -0.338666,-0.137583 -0.137584,-0.137583 -0.137584,-0.338667 v -4.54025 q 0,-0.201083 0.137584,-0.338666 0.137583,-0.148167 0.338666,-0.148167 0.211667,0 0.34925,0.137583 0.137584,0.137584 0.137584,0.34925 v 4.54025 q 0,0.201084 -0.148167,0.338667 -0.137583,0.137583 -0.338667,0.137583 z" />
      <path
         id="path4525"
         style="font-style:normal;font-variant:normal;font-weight:normal;font-stretch:normal;font-family:'Varela Round';-inkscape-font-specification:'Varela Round';fill:#00aaa6;fill-opacity:1;stroke-width:0.26458332"
         d="m 94.414317,95.475949 q -0.243417,0 -0.423334,-0.169334 -0.169333,-0.179916 -0.169333,-0.423333 v -0.0635 q 0,-0.243417 0.169333,-0.41275 0.179917,-0.179917 0.423334,-0.179917 h 0.105833 q 0.243417,0 0.41275,0.179917 0.179917,0.169333 0.179917,0.41275 v 0.0635 q 0,0.243417 -0.179917,0.423333 -0.169333,0.169334 -0.41275,0.169334 z" />
      <path
         id="path4527"
         style="font-style:normal;font-variant:normal;font-weight:normal;font-stretch:normal;font-family:'Varela Round';-inkscape-font-specification:'Varela Round';fill:#00aaa6;fill-opacity:1;stroke-width:0.26458332"
         d="m 97.184669,88.946032 q -0.22225,0 -0.381,-0.15875 -0.15875,-0.15875 -0.15875,-0.381 v -0.04233 q 0,-0.22225 0.15875,-0.381 0.15875,-0.15875 0.381,-0.15875 h 0.0635 q 0.22225,0 0.381,0.15875 0.15875,0.15875 0.15875,0.381 v 0.04233 q 0,0.22225 -0.15875,0.381 -0.15875,0.15875 -0.381,0.15875 z m -0.878417,9.038167 q -0.381,0 -0.66675,-0.09525 -0.127,-0.04233 -0.201083,-0.148167 -0.07408,-0.09525 -0.07408,-0.232833 0,-0.15875 0.116416,-0.28575 0.116417,-0.116417 0.28575,-0.116417 0.0635,0 0.15875,0.01058 0.09525,0.02117 0.15875,0.02117 0.328084,0 0.486834,-0.116417 0.15875,-0.116416 0.15875,-0.508 v -6.021916 q 0,-0.201084 0.137583,-0.338667 0.137583,-0.148167 0.338667,-0.148167 0.211666,0 0.34925,0.137584 0.137583,0.137583 0.137583,0.34925 v 6.043083 q 0,0.656167 -0.338667,1.04775 -0.328083,0.402167 -1.04775,0.402167 z" />
      <path
         id="path4529"
         style="font-style:normal;font-variant:normal;font-weight:normal;font-stretch:normal;font-family:'Varela Round';-inkscape-font-specification:'Varela Round';fill:#00aaa6;fill-opacity:1;stroke-width:0.26458332"
         d="m 101.11009,95.550032 q -1.05833,0 -1.926164,-0.47625 -0.179916,-0.127 -0.179916,-0.34925 0,-0.169333 0.116416,-0.296333 0.116417,-0.127 0.296334,-0.127 0.09525,0 0.1905,0.04233 0.338666,0.148167 0.67733,0.232833 0.33867,0.08467 0.762,0.08467 1.17475,0 1.17475,-0.751417 0,-0.243416 -0.27516,-0.370416 -0.26459,-0.127 -0.87842,-0.28575 -0.62442,-0.148167 -1.03717,-0.306917 -0.402164,-0.15875 -0.698497,-0.47625 -0.28575,-0.328083 -0.28575,-0.85725 0,-0.740833 0.529167,-1.2065 0.53975,-0.465667 1.53458,-0.465667 0.81492,0 1.53459,0.264584 0.14816,0.04233 0.22225,0.15875 0.0847,0.116416 0.0847,0.243416 0,0.169334 -0.127,0.296334 -0.11641,0.127 -0.29633,0.127 -0.0529,0 -0.13758,-0.02117 -0.61384,-0.1905 -1.2065,-0.1905 -0.5715,0 -0.89959,0.211667 -0.317497,0.201083 -0.317497,0.529166 0,0.3175 0.296337,0.465667 0.29633,0.148167 0.92075,0.28575 0.62441,0.15875 1.016,0.3175 0.39158,0.148167 0.66675,0.47625 0.28575,0.328083 0.28575,0.878417 0,0.677333 -0.53975,1.121833 -0.52917,0.4445 -1.50284,0.4445 z" />
    </g>
  </g>
</svg>
