<?xml version="1.0" encoding="UTF-8" standalone="no"?>
<svg
   xmlns:dc="http://purl.org/dc/elements/1.1/"
   xmlns:cc="http://creativecommons.org/ns#"
   xmlns:rdf="http://www.w3.org/1999/02/22-rdf-syntax-ns#"
   xmlns:svg="http://www.w3.org/2000/svg"
   xmlns="http://www.w3.org/2000/svg"
   xmlns:sodipodi="http://sodipodi.sourceforge.net/DTD/sodipodi-0.dtd"
   xmlns:inkscape="http://www.inkscape.org/namespaces/inkscape"
   id="svg8"
   version="1.1"
   viewBox="0 0 34.942978 10.318749"
   height="10.318749mm"
   width="34.942978mm"
   sodipodi:docname="logo.svg"
   inkscape:version="0.92.3 (2405546, 2018-03-11)">
  <sodipodi:namedview
     pagecolor="#ffffff"
     bordercolor="#666666"
     borderopacity="1"
     objecttolerance="10"
     gridtolerance="10"
     guidetolerance="10"
     inkscape:pageopacity="0"
     inkscape:pageshadow="2"
     inkscape:window-width="3000"
     inkscape:window-height="1875"
     id="namedview4529"
     showgrid="false"
     fit-margin-top="0"
     fit-margin-left="0"
     fit-margin-right="0"
     fit-margin-bottom="0"
     inkscape:zoom="9.1338219"
     inkscape:cx="46.251883"
     inkscape:cy="19.633977"
     inkscape:window-x="-13"
     inkscape:window-y="-13"
     inkscape:window-maximized="1"
     inkscape:current-layer="svg8"
     showborder="true"
     showguides="true"
     inkscape:guide-bbox="true" />
  <defs
     id="defs2" />
  <metadata
     id="metadata5">
    <rdf:RDF>
      <cc:Work
         rdf:about="">
        <dc:format>image/svg+xml</dc:format>
        <dc:type
           rdf:resource="http://purl.org/dc/dcmitype/StillImage" />
        <dc:title></dc:title>
        <dc:description>Logo for BCI.js. Uses icon from Font Awesome (https://fontawesome.com/license).</dc:description>
      </cc:Work>
    </rdf:RDF>
  </metadata>
  <g
     transform="translate(-68.209742,-87.665449)"
     id="layer1">
    <g
       id="text817"
       style="font-style:normal;font-weight:normal;font-size:10.58333302px;line-height:1.25;font-family:sans-serif;letter-spacing:0px;word-spacing:0px;fill:#000000;fill-opacity:1;stroke:none;stroke-width:0.26458332"
       aria-label="bci.js">
      <path
         id="path4519"
         style="font-style:normal;font-variant:normal;font-weight:normal;font-stretch:normal;font-family:'Varela Round';-inkscape-font-specification:'Varela Round';fill:#00aaa6;fill-opacity:1;stroke-width:0.26458332"
         d="m 81.755492,95.550032 q -1.037166,0 -1.809749,-0.804333 v 0.275166 q 0,0.201084 -0.148167,0.338667 -0.137583,0.137583 -0.338667,0.137583 -0.201083,0 -0.338666,-0.137583 -0.137584,-0.137583 -0.137584,-0.338667 v -6.868583 q 0,-0.201083 0.137584,-0.338666 0.137583,-0.148167 0.338666,-0.148167 0.211667,0 0.34925,0.137583 0.137584,0.137584 0.137584,0.34925 v 2.592917 q 0.772583,-0.804334 1.809749,-0.804334 0.656167,0 1.23825,0.338667 0.592667,0.328083 0.9525,0.973667 0.370417,0.635 0.370417,1.49225 0,0.85725 -0.370417,1.502833 -0.359833,0.635 -0.9525,0.973667 -0.582083,0.328083 -1.23825,0.328083 z m -0.137583,-0.899583 q 0.783167,0 1.259417,-0.497417 0.47625,-0.497417 0.47625,-1.407583 0,-0.910167 -0.47625,-1.407584 -0.47625,-0.497416 -1.259417,-0.497416 -0.486833,0 -0.92075,0.22225 -0.423333,0.211666 -0.751416,0.5715 v 2.2225 q 0.328083,0.359833 0.751416,0.582083 0.433917,0.211667 0.92075,0.211667 z"
         inkscape:connector-curvature="0" />
      <path
         id="path4521"
         style="font-style:normal;font-variant:normal;font-weight:normal;font-stretch:normal;font-family:'Varela Round';-inkscape-font-specification:'Varela Round';fill:#00aaa6;fill-opacity:1;stroke-width:0.26458332"
         d="m 88.156921,95.550032 q -0.762,0 -1.407584,-0.338667 -0.645583,-0.338666 -1.037166,-0.973666 -0.381,-0.635 -0.381,-1.49225 0,-0.85725 0.381,-1.49225 0.391583,-0.635 1.037166,-0.973667 0.645584,-0.338667 1.407584,-0.338667 0.560916,0 0.963083,0.148167 0.41275,0.137583 0.762,0.359833 0.211667,0.137584 0.211667,0.370417 0,0.15875 -0.127,0.296333 -0.116417,0.127 -0.275167,0.127 -0.116417,0 -0.232833,-0.0635 -0.34925,-0.179916 -0.60325,-0.254 -0.243417,-0.08467 -0.613834,-0.08467 -0.910166,0 -1.42875,0.529166 -0.518583,0.518584 -0.518583,1.375834 0,0.85725 0.518583,1.386416 0.518584,0.518584 1.42875,0.518584 0.370417,0 0.613834,-0.07408 0.254,-0.08467 0.60325,-0.264583 0.116416,-0.0635 0.232833,-0.0635 0.15875,0 0.275167,0.137583 0.127,0.127 0.127,0.28575 0,0.232834 -0.211667,0.370417 -0.34925,0.22225 -0.762,0.370417 -0.402167,0.137583 -0.963083,0.137583 z"
         inkscape:connector-curvature="0" />
      <path
         id="path4523"
         style="font-style:normal;font-variant:normal;font-weight:normal;font-stretch:normal;font-family:'Varela Round';-inkscape-font-specification:'Varela Round';fill:#00aaa6;fill-opacity:1;stroke-width:0.26458332"
         d="m 91.757404,88.946032 q -0.22225,0 -0.381,-0.15875 -0.15875,-0.15875 -0.15875,-0.381 v -0.04233 q 0,-0.22225 0.15875,-0.381 0.15875,-0.15875 0.381,-0.15875 h 0.0635 q 0.22225,0 0.381,0.15875 0.15875,0.15875 0.15875,0.381 v 0.04233 q 0,0.22225 -0.15875,0.381 -0.15875,0.15875 -0.381,0.15875 z m 0.02117,6.551083 q -0.201083,0 -0.338666,-0.137583 -0.137584,-0.137583 -0.137584,-0.338667 v -4.54025 q 0,-0.201083 0.137584,-0.338666 0.137583,-0.148167 0.338666,-0.148167 0.211667,0 0.34925,0.137583 0.137584,0.137584 0.137584,0.34925 v 4.54025 q 0,0.201084 -0.148167,0.338667 -0.137583,0.137583 -0.338667,0.137583 z"
         inkscape:connector-curvature="0" />
      <path
         id="path4525"
         style="font-style:normal;font-variant:normal;font-weight:normal;font-stretch:normal;font-family:'Varela Round';-inkscape-font-specification:'Varela Round';fill:#00aaa6;fill-opacity:1;stroke-width:0.26458332"
         d="m 94.414317,95.475949 q -0.243417,0 -0.423334,-0.169334 -0.169333,-0.179916 -0.169333,-0.423333 v -0.0635 q 0,-0.243417 0.169333,-0.41275 0.179917,-0.179917 0.423334,-0.179917 h 0.105833 q 0.243417,0 0.41275,0.179917 0.179917,0.169333 0.179917,0.41275 v 0.0635 q 0,0.243417 -0.179917,0.423333 -0.169333,0.169334 -0.41275,0.169334 z"
         inkscape:connector-curvature="0" />
      <path
         id="path4527"
         style="font-style:normal;font-variant:normal;font-weight:normal;font-stretch:normal;font-family:'Varela Round';-inkscape-font-specification:'Varela Round';fill:#00aaa6;fill-opacity:1;stroke-width:0.26458332"
         d="m 97.184669,88.946032 q -0.22225,0 -0.381,-0.15875 -0.15875,-0.15875 -0.15875,-0.381 v -0.04233 q 0,-0.22225 0.15875,-0.381 0.15875,-0.15875 0.381,-0.15875 h 0.0635 q 0.22225,0 0.381,0.15875 0.15875,0.15875 0.15875,0.381 v 0.04233 q 0,0.22225 -0.15875,0.381 -0.15875,0.15875 -0.381,0.15875 z m -0.878417,9.038167 q -0.381,0 -0.66675,-0.09525 -0.127,-0.04233 -0.201083,-0.148167 -0.07408,-0.09525 -0.07408,-0.232833 0,-0.15875 0.116416,-0.28575 0.116417,-0.116417 0.28575,-0.116417 0.0635,0 0.15875,0.01058 0.09525,0.02117 0.15875,0.02117 0.328084,0 0.486834,-0.116417 0.15875,-0.116416 0.15875,-0.508 v -6.021916 q 0,-0.201084 0.137583,-0.338667 0.137583,-0.148167 0.338667,-0.148167 0.211666,0 0.34925,0.137584 0.137583,0.137583 0.137583,0.34925 v 6.043083 q 0,0.656167 -0.338667,1.04775 -0.328083,0.402167 -1.04775,0.402167 z"
         inkscape:connector-curvature="0" />
      <path
         id="path4529"
         style="font-style:normal;font-variant:normal;font-weight:normal;font-stretch:normal;font-family:'Varela Round';-inkscape-font-specification:'Varela Round';fill:#00aaa6;fill-opacity:1;stroke-width:0.26458332"
         d="m 101.11009,95.550032 q -1.05833,0 -1.926164,-0.47625 -0.179916,-0.127 -0.179916,-0.34925 0,-0.169333 0.116416,-0.296333 0.116417,-0.127 0.296334,-0.127 0.09525,0 0.1905,0.04233 0.338666,0.148167 0.67733,0.232833 0.33867,0.08467 0.762,0.08467 1.17475,0 1.17475,-0.751417 0,-0.243416 -0.27516,-0.370416 -0.26459,-0.127 -0.87842,-0.28575 -0.62442,-0.148167 -1.03717,-0.306917 -0.402164,-0.15875 -0.698497,-0.47625 -0.28575,-0.328083 -0.28575,-0.85725 0,-0.740833 0.529167,-1.2065 0.53975,-0.465667 1.53458,-0.465667 0.81492,0 1.53459,0.264584 0.14816,0.04233 0.22225,0.15875 0.0847,0.116416 0.0847,0.243416 0,0.169334 -0.127,0.296334 -0.11641,0.127 -0.29633,0.127 -0.0529,0 -0.13758,-0.02117 -0.61384,-0.1905 -1.2065,-0.1905 -0.5715,0 -0.89959,0.211667 -0.317497,0.201083 -0.317497,0.529166 0,0.3175 0.296337,0.465667 0.29633,0.148167 0.92075,0.28575 0.62441,0.15875 1.016,0.3175 0.39158,0.148167 0.66675,0.47625 0.28575,0.328083 0.28575,0.878417 0,0.677333 -0.53975,1.121833 -0.52917,0.4445 -1.50284,0.4445 z"
         inkscape:connector-curvature="0" />
    </g>
  </g>
  <path
     id="path4542"
     d="m 3.0385459,0.27556466 c -0.4363535,0 -0.7996646,0.30020326 -0.9027995,0.70441756 -0.01095,-2.998e-4 -0.02119,-0.00322 -0.03214,-0.00322 -0.5162615,0 -0.9349381,0.41853048 -0.9349381,0.93493808 0,0.070706 0.00938,0.138926 0.024255,0.2051019 -0.42539718,0.1747165 -0.72545426,0.592079 -0.72545426,1.0804379 0,0.1837741 0.0461552,0.3552765 0.12183479,0.5099795 C 0.23870174,3.9089619 4e-8,4.2830832 4e-8,4.7165144 c 0,0.4870443 0.2983044,0.9039674 0.72194778,1.0794152 -0.0131529,0.066757 -0.0207437,0.1355656 -0.0207437,0.2061236 0,0.5808309 0.47082928,1.0518063 1.05180528,1.0518063 0.060192,0 0.1183283,-0.00807 0.1757399,-0.017679 0.139948,0.4166305 0.5291159,0.7188787 0.9929335,0.7188787 0.5809759,0 1.0518052,-0.4709744 1.0518052,-1.0518051 V 3.2768568 C 3.8141101,3.4080405 3.6231777,3.5025567 3.4131091,3.5455057 3.3405063,3.5604036 3.2722834,3.5043073 3.2722834,3.430245 V 3.193881 c 0,-0.052153 0.034333,-0.099045 0.084731,-0.1119003 C 3.7105373,2.9919928 3.9734892,2.6736759 3.9734892,2.2925422 V 1.2104973 c 0,-0.51640698 -0.4186767,-0.93493811 -0.9349382,-0.93493811 z M 8.4144401,4.7165205 c 0,-0.4334313 -0.2387017,-0.8075528 -0.589303,-1.0092948 0.075525,-0.1547026 0.121834,-0.3262054 0.121834,-0.5099789 0,-0.4883595 -0.3000568,-0.9057216 -0.725454,-1.0804382 0.014901,-0.066176 0.02425,-0.1343976 0.02425,-0.2051016 0,-0.5164078 -0.4186769,-0.93493888 -0.9349375,-0.93493888 -0.01095,0 -0.021179,0.00295 -0.03214,0.00322 C 6.1755483,0.57577102 5.8122428,0.27556837 5.3758893,0.27556837 c -0.5162615,0 -0.9349382,0.41853055 -0.9349382,0.93493803 v 1.0820451 c 0,0.3811331 0.2628057,0.6994504 0.6164747,0.7894379 0.05054,0.012853 0.084731,0.059749 0.084731,0.1119004 v 0.2363644 c 0,0.074065 -0.068371,0.1301607 -0.1408258,0.1152601 C 4.791262,3.5025654 4.6004757,3.4080491 4.4409523,3.2768656 v 3.4264011 c 0,0.5808308 0.4708293,1.0518063 1.0518051,1.0518063 0.4638176,0 0.8529854,-0.3022481 0.9929343,-0.71888 0.05741,0.00981 0.1155519,0.01768 0.1757391,0.01768 0.5809763,0 1.0518053,-0.4709756 1.0518053,-1.0518053 0,-0.070563 -0.0076,-0.1393644 -0.020743,-0.2061249 0.4236431,-0.1754474 0.721947,-0.5923715 0.721947,-1.0794158 z"
     inkscape:connector-curvature="0"
     style="fill:#00aaa6;fill-opacity:1;stroke-width:0.01460841" />
</svg>
